<?xml version="1.0" encoding="UTF-8" standalone="no"?>
<svg
   id="_Слой_1"
   data-name="Слой_1"
   version="1.1"
   viewBox="0 0 472.95999 473.17001"
   sodipodi:docname="logo.svg"
   width="472.95999"
   height="473.17001"
   inkscape:version="1.4 (e7c3feb100, 2024-10-09)"
   xmlns:inkscape="http://www.inkscape.org/namespaces/inkscape"
   xmlns:sodipodi="http://sodipodi.sourceforge.net/DTD/sodipodi-0.dtd"
   xmlns="http://www.w3.org/2000/svg"
   xmlns:svg="http://www.w3.org/2000/svg">
  <sodipodi:namedview
     id="namedview8"
     pagecolor="#ffffff"
     bordercolor="#000000"
     borderopacity="0.25"
     inkscape:showpageshadow="2"
     inkscape:pageopacity="0.0"
     inkscape:pagecheckerboard="0"
     inkscape:deskcolor="#d1d1d1"
     inkscape:zoom="0.60558017"
     inkscape:cx="293.93301"
     inkscape:cy="434.29427"
     inkscape:window-width="1900"
     inkscape:window-height="1145"
     inkscape:window-x="0"
     inkscape:window-y="0"
     inkscape:window-maximized="1"
     inkscape:current-layer="_Слой_1" />
  <!-- Generator: Adobe Illustrator 29.3.1, SVG Export Plug-In . SVG Version: 2.1.0 Build 151)  -->
  <defs
     id="defs1">
    <style
       id="style1">
      .st0 {
        fill: #3aaa35;
      }
    </style>
  </defs>
  <path
     class="st0"
     d="M 1.1,0 0,472.07 471.86,473.17 472.96,1.1 Z M 360,150.01 c -3,0.89 -12.14,2.67 -12.14,2.67 l -0.42,181.07 52.56,0.12 -0.13,55.26 -113.66,-0.26 0.55,-234.09 -96.14,-0.22 -0.61,133.89 c -0.02,10.33 -1.55,20.51 -4.41,30.39 -8.45,28.59 -28.57,52.65 -55.41,65.92 -8.55,4.32 -17.69,7.3 -27.13,9.22 -10.19,1.92 -20.82,2.5 -31.6,1.42 l 0.13,-56.01 c 22.16,2.45 44.2,-9.78 53.38,-29.98 2.56,-4.94 5.23,-11.38 5.14,-21.11 -0.07,-7.69 0.02,-135.33 0.02,-135.33 -22.96,5.08 -39.78,23.82 -50.38,42.73 L 29.61,167.21 c 5.56,-10.32 15.57,-26.68 22.32,-34.46 15.92,-18.23 35.88,-30.63 52.32,-34.86 5.89,-1.52 18.35,-3.94 28.68,-3.94 44.26,0 195.31,-0.33 195.31,-0.33 24.71,0.06 46.9,-12.92 58.93,-34.31 l 49.05,28.57 c -15.5,30.67 -43.1,53.22 -76.22,62.13 z"
     id="path8"
     style="fill:#3c3c3c;fill-opacity:1" />
</svg>
